<svg width="46" height="46" viewBox="0 0 46 46" fill="none" xmlns="http://www.w3.org/2000/svg">
<circle cx="23" cy="23" r="23" fill="url(#paint0_linear)"/>
<path d="M23.0391 21.2031C22.0698 21.2031 21.2812 21.9916 21.2812 22.9609C21.2812 23.9302 22.0698 24.7188 23.0391 24.7188C24.0084 24.7188 24.7969 23.9302 24.7969 22.9609C24.7969 21.9916 24.0084 21.2031 23.0391 21.2031Z" fill="white"/>
<path d="M22.9609 13C17.4684 13 13 17.4684 13 22.9609C13 28.4535 17.4684 33 22.9609 33C28.4535 33 33 28.4535 33 22.9609C33 17.4684 28.4535 13 22.9609 13ZM27.1406 25.8906C26.3487 25.8906 25.6503 25.4937 25.2259 24.8908C24.6887 25.4989 23.9123 25.8906 23.0391 25.8906C21.4237 25.8906 20.1094 24.5763 20.1094 22.9609C20.1094 21.3456 21.4237 20.0312 23.0391 20.0312C23.7011 20.0312 24.3057 20.2604 24.7969 20.6321V20.6172C24.7969 20.2933 25.0589 20.0312 25.3828 20.0312C25.7067 20.0312 25.9688 20.2933 25.9688 20.6172C25.9688 21.9203 25.9688 22.2432 25.9688 23.5469C25.9688 24.1929 26.4946 24.7188 27.1406 24.7188C27.7866 24.7188 28.3125 24.1929 28.3125 23.5469C28.3125 19.6254 25.7175 17.6875 23.0391 17.6875C20.1311 17.6875 17.7656 20.053 17.7656 22.9609C17.7656 25.8689 20.1311 28.2344 23.0391 28.2344C24.2109 28.2344 25.3193 27.859 26.2446 27.1483C26.8626 26.6765 27.5704 27.6079 26.9587 28.0776C25.8263 28.9468 24.4713 29.4062 23.0391 29.4062C19.4851 29.4062 16.5938 26.5149 16.5938 22.9609C16.5938 19.407 19.4851 16.5156 23.0391 16.5156C26.2772 16.5156 29.4844 18.9037 29.4844 23.5469C29.4844 24.8395 28.4332 25.8906 27.1406 25.8906Z" fill="white"/>
<defs>
<linearGradient id="paint0_linear" x1="2.65385" y1="-32.2005" x2="46.1448" y2="-32.1199" gradientUnits="userSpaceOnUse">
<stop stop-color="#7AD9F6"/>
<stop offset="1" stop-color="#70F6E9"/>
</linearGradient>
</defs>
</svg>
