<svg width="46" height="46" viewBox="0 0 46 46" fill="none" xmlns="http://www.w3.org/2000/svg">
<circle cx="23" cy="23" r="23" fill="url(#paint0_linear)"/>
<path d="M21.325 12.0431C18.8625 12.3478 17 14.4103 17 16.8595V21.9572C17 24.2818 13.25 24.2815 13.25 21.9572V12.5822C13.25 11.8059 12 11.8059 12 12.5822V21.9572C12 25.8263 18.25 25.8316 18.25 21.9572V16.8595C18.25 14.9963 19.6375 13.4259 21.4875 13.2032C22.125 13.1212 22.75 13.1915 23.325 13.4025C23.9 13.2502 24.5 13.1682 25.125 13.1682H25.2875C24.225 12.2893 22.8 11.8557 21.325 12.0431Z" fill="white"/>
<path d="M25.75 17.8556C25.4052 17.8556 25.125 18.1183 25.125 18.4416V19.6134C25.125 19.9367 25.4052 20.1994 25.75 20.1994C26.0948 20.1994 26.375 19.9367 26.375 19.6134V18.4416C26.375 18.1183 26.0948 17.8556 25.75 17.8556Z" fill="white"/>
<path d="M26.375 14.34V16.7917C27.1009 17.0344 27.625 17.6787 27.625 18.4416V19.6134C27.625 20.3763 27.1009 21.0206 26.375 21.2633V22.5098C29.4763 22.3488 31.7676 21.027 31.9623 19.2643C31.7663 16.523 29.3475 14.34 26.375 14.34Z" fill="white"/>
<path d="M19.5 21.6886V26.6447C19.5 29.5509 22.025 32 25.125 32H26.375C29.475 32 32 29.5509 32 26.6447V21.6887C29.1184 24.3948 22.384 24.3972 19.5 21.6886Z" fill="white"/>
<path d="M25.1251 16.7917V14.34C25.0125 14.34 24.9001 14.34 24.7875 14.3517C24.8 14.3634 24.8 14.3634 24.8126 14.3751C23.525 14.4454 22.3501 14.9142 21.425 15.6525C21.425 15.6642 21.425 15.6642 21.4126 15.6642C21.0542 15.9664 20.7654 16.2522 20.4 16.7658C20.4 16.7658 20.4 16.7658 20.4 16.7775C19.8841 17.4432 19.6022 18.371 19.5372 19.2607C19.729 21.0252 22.0215 22.3487 25.1251 22.5098V21.2633C24.3992 21.0206 23.8751 20.3763 23.8751 19.6134V18.4416C23.8751 17.6787 24.3992 17.0344 25.1251 16.7917Z" fill="white"/>
<defs>
<linearGradient id="paint0_linear" x1="2.65385" y1="-32.2005" x2="46.1448" y2="-32.1199" gradientUnits="userSpaceOnUse">
<stop stop-color="#7AD9F6"/>
<stop offset="1" stop-color="#70F6E9"/>
</linearGradient>
</defs>
</svg>
