<svg width="46" height="46" viewBox="0 0 46 46" fill="none" xmlns="http://www.w3.org/2000/svg">
<circle cx="23" cy="23" r="23" fill="url(#paint0_linear)"/>
<g clip-path="url(#clip0)">
<path d="M32.4242 25.1216C33.8725 18.6133 28.1708 12.7008 21.475 13.8358C17.84 11.58 13 14.1291 13 18.4541C13 19.46 13.2775 20.4016 13.76 21.2133C12.4142 27.7366 18.1625 33.5641 24.8525 32.3516C29.5817 34.8525 34.8075 29.865 32.4242 25.1216ZM26.0592 29.0466C24.3025 29.7691 21.4117 29.7733 19.6625 28.8575C17.1683 27.5275 16.725 24.5333 18.8767 24.5333C20.4983 24.5333 19.985 26.4241 21.6225 27.195C22.3742 27.5425 23.99 27.5783 24.9292 26.945C25.8567 26.3241 25.7717 25.3475 25.2675 24.8808C23.9317 23.6475 20.1092 24.1375 18.3617 21.9783C17.6025 21.0416 17.4592 19.3891 18.3925 18.1908C20.0192 16.0975 24.7925 15.97 26.845 17.5508C28.74 19.0175 28.2283 20.9641 26.6992 20.9641C24.86 20.9641 25.8267 18.5575 22.8575 18.5575C20.705 18.5575 19.8583 20.0883 21.3742 20.8333C23.4292 21.8541 28.6658 21.5133 28.6658 25.5025C28.6617 27.1625 27.6442 28.4 26.0592 29.0466Z" fill="white"/>
</g>
<defs>
<linearGradient id="paint0_linear" x1="2.65385" y1="-32.2005" x2="46.1448" y2="-32.1199" gradientUnits="userSpaceOnUse">
<stop stop-color="#7AD9F6"/>
<stop offset="1" stop-color="#70F6E9"/>
</linearGradient>
<clipPath id="clip0">
<rect width="20" height="20" fill="white" transform="translate(13 13)"/>
</clipPath>
</defs>
</svg>
